# Blender v2.81 (sub 16) OBJ File: ''
# www.blender.org
o Sphere
v 0.000000 0.980785 -0.195090
v 0.000000 0.831470 -0.555570
v 0.000000 0.555570 -0.831470
v 0.000000 0.195090 -0.980785
v 0.000000 -0.195090 -0.980785
v 0.000000 -0.831470 -0.555570
v 0.074658 0.980785 -0.180240
v 0.212608 0.831470 -0.513280
v 0.318190 0.555570 -0.768178
v 0.375330 0.195090 -0.906127
v 0.375330 -0.195090 -0.906127
v 0.318190 -0.555570 -0.768178
v 0.212608 -0.831470 -0.513280
v 0.074658 -0.980785 -0.180240
v 0.137950 0.980785 -0.137950
v 0.392848 0.831470 -0.392847
v 0.587938 0.555570 -0.587938
v 0.693520 0.195090 -0.693520
v 0.693520 -0.195090 -0.693520
v 0.587938 -0.555570 -0.587938
v 0.392848 -0.831470 -0.392847
v 0.137950 -0.980785 -0.137949
v 0.180240 0.980785 -0.074658
v 0.513280 0.831470 -0.212607
v 0.768178 0.555570 -0.318189
v 0.906128 0.195090 -0.375330
v 0.906128 -0.195090 -0.375330
v 0.768178 -0.555570 -0.318189
v 0.513280 -0.831470 -0.212607
v 0.180240 -0.980785 -0.074658
v 0.195091 0.980785 0.000000
v 0.555570 0.831470 0.000000
v 0.831470 0.555570 0.000000
v 0.980785 0.195090 0.000000
v 0.980785 -0.195090 0.000000
v 0.831470 -0.555570 0.000000
v 0.555570 -0.831470 0.000000
v 0.195090 -0.980785 0.000000
v 0.180240 0.980785 0.074658
v 0.513280 0.831470 0.212608
v 0.768178 0.555570 0.318190
v 0.906127 0.195090 0.375331
v 0.906127 -0.195090 0.375331
v 0.768178 -0.555570 0.318190
v 0.513280 -0.831470 0.212608
v 0.180240 -0.980785 0.074658
v 0.137950 0.980785 0.137950
v 0.392848 0.831470 0.392848
v 0.587938 0.555570 0.587938
v 0.693520 0.195090 0.693520
v 0.693520 -0.195090 0.693520
v 0.587938 -0.555570 0.587938
v 0.392848 -0.831470 0.392848
v 0.137950 -0.980785 0.137950
v 0.000000 -1.000000 0.000000
v 0.074658 0.980785 0.180240
v 0.212608 0.831470 0.513280
v 0.318190 0.555570 0.768178
v 0.375330 0.195090 0.906128
v 0.375330 -0.195090 0.906128
v 0.318190 -0.555570 0.768178
v 0.212608 -0.831470 0.513280
v 0.074658 -0.980785 0.180240
v -0.000000 0.980785 0.195091
v 0.000000 0.831470 0.555571
v -0.000000 0.555570 0.831470
v -0.000000 0.195090 0.980785
v -0.000000 -0.195090 0.980785
v -0.000000 -0.555570 0.831470
v -0.000000 -0.831470 0.555570
v 0.000000 -0.980785 0.195091
v -0.074658 0.980785 0.180240
v -0.212608 0.831470 0.513280
v -0.318190 0.555570 0.768178
v -0.375330 0.195090 0.906127
v -0.375330 -0.195090 0.906127
v -0.318190 -0.555570 0.768178
v -0.212608 -0.831470 0.513280
v -0.074658 -0.980785 0.180240
v -0.000000 1.000000 0.000001
v -0.137950 0.980785 0.137950
v -0.392848 0.831470 0.392848
v -0.587938 0.555570 0.587938
v -0.693520 0.195090 0.693520
v -0.693520 -0.195090 0.693520
v -0.587938 -0.555570 0.587938
v -0.392847 -0.831470 0.392848
v -0.137950 -0.980785 0.137950
v -0.180240 0.980785 0.074658
v -0.513280 0.831470 0.212608
v -0.768177 0.555570 0.318190
v -0.906127 0.195090 0.375330
v -0.906127 -0.195090 0.375330
v -0.768177 -0.555570 0.318190
v -0.513280 -0.831470 0.212608
v -0.180240 -0.980785 0.074658
v -0.195090 0.980785 0.000000
v -0.555570 0.831470 0.000000
v -0.831469 0.555570 0.000000
v -0.980785 0.195090 0.000000
v -0.980785 -0.195090 0.000000
v -0.831469 -0.555570 0.000000
v -0.555570 -0.831470 0.000000
v -0.195090 -0.980785 0.000000
v -0.180240 0.980785 -0.074658
v -0.513280 0.831470 -0.212607
v -0.768177 0.555570 -0.318189
v -0.906127 0.195090 -0.375330
v -0.906127 -0.195090 -0.375330
v -0.768177 -0.555570 -0.318189
v -0.513280 -0.831470 -0.212607
v -0.180240 -0.980785 -0.074657
v -0.137950 0.980785 -0.137949
v -0.392847 0.831470 -0.392847
v -0.587937 0.555570 -0.587937
v -0.693519 0.195090 -0.693519
v -0.693519 -0.195090 -0.693519
v -0.587937 -0.555570 -0.587937
v -0.392847 -0.831470 -0.392847
v -0.137950 -0.980785 -0.137949
v -0.074658 0.980785 -0.180240
v -0.212607 0.831470 -0.513280
v -0.318189 0.555570 -0.768177
v -0.375330 0.195090 -0.906127
v -0.375330 -0.195090 -0.906127
v -0.318189 -0.555570 -0.768177
v -0.212607 -0.831470 -0.513279
v -0.074658 -0.980785 -0.180240
v 0.000000 -0.555570 -0.831469
v 0.000000 -0.980785 -0.195090
vt 0.687500 0.437500
vt 0.750000 0.437500
vt 0.750000 0.562500
vt 0.687500 0.562500
vt 0.812500 0.812500
vt 0.750000 0.812500
vt 0.750000 0.687500
vt 0.812500 0.687500
vt 0.687500 0.812500
vt 0.750000 0.937500
vt 0.687500 0.937500
vt 0.625000 0.437500
vt 0.625000 0.562500
vt 0.687500 0.687500
vt 0.812500 0.937500
vt 0.625000 0.187500
vt 0.687500 0.187500
vt 0.687500 0.312500
vt 0.625000 0.312500
vt 0.640625 1.000000
vt 0.625000 0.937500
vt 0.625000 0.062500
vt 0.687500 0.062500
vt 0.562500 0.812500
vt 0.625000 0.812500
vt 0.562500 0.937500
vt 0.750000 0.187500
vt 0.750000 0.312500
vt 0.562500 0.437500
vt 0.562500 0.562500
vt 0.625000 0.687500
vt 0.562500 0.187500
vt 0.562500 0.312500
vt 0.562500 0.687500
vt 0.500000 0.437500
vt 0.500000 0.562500
vt 0.562500 0.062500
vt 0.578125 1.000000
vt 0.500000 0.687500
vt 0.671875 0.000000
vt 0.500000 0.812500
vt 0.500000 0.937500
vt 0.500000 0.187500
vt 0.500000 0.312500
vt 0.437500 0.437500
vt 0.437500 0.562500
vt 0.500000 0.062500
vt 0.437500 0.687500
vt 0.515625 1.000000
vt 0.609375 0.000000
vt 0.437500 0.812500
vt 0.437500 0.937500
vt 0.437500 0.187500
vt 0.437500 0.312500
vt 0.375000 0.437500
vt 0.375000 0.562500
vt 0.375000 0.687500
vt 0.546875 0.000000
vt 0.453124 1.000000
vt 0.375000 0.812500
vt 0.375000 0.937500
vt 0.437500 0.062500
vt 0.375000 0.312500
vt 0.312500 0.437500
vt 0.312500 0.562500
vt 0.375000 0.187500
vt 0.390625 1.000000
vt 0.484375 0.000000
vt 0.312500 0.812500
vt 0.312500 0.937500
vt 0.375000 0.062500
vt 0.312500 0.687500
vt 0.250000 0.437500
vt 0.250000 0.562500
vt 0.312500 0.187500
vt 0.312500 0.312500
vt 0.328125 1.000000
vt 0.421875 0.000000
vt 0.250000 0.812500
vt 0.250000 0.937500
vt 0.250000 0.687500
vt 0.312500 0.062500
vt 0.187500 0.437500
vt 0.187500 0.562500
vt 0.250000 0.187500
vt 0.250000 0.312500
vt 0.265625 1.000000
vt 0.187500 0.812500
vt 0.187500 0.937500
vt 0.359375 0.000000
vt 0.250000 0.062500
vt 0.187500 0.687500
vt 0.187500 0.312500
vt 0.125000 0.437500
vt 0.125000 0.562500
vt 0.187500 0.187500
vt 0.125000 0.812500
vt 0.125000 0.937500
vt 0.296875 0.000000
vt 0.187500 0.062500
vt 0.125000 0.687500
vt 0.203125 1.000000
vt 0.125000 0.312500
vt 0.062500 0.437500
vt 0.062500 0.562500
vt 0.234375 0.000000
vt 0.062500 0.812500
vt 0.062500 0.937500
vt 0.125000 0.062500
vt 0.125000 0.187500
vt 0.062500 0.687500
vt 0.140625 1.000000
vt 0.000000 0.437500
vt 1.000000 0.562500
vt 0.062500 0.312500
vt 0.171875 0.000000
vt 0.000000 0.687500
vt 1.000000 0.812500
vt 0.062500 0.062500
vt 0.062500 0.187500
vt 0.000000 0.562500
vt 1.000000 0.687500
vt 0.000000 0.812500
vt 1.000000 0.937500
vt 0.078125 1.000000
vt 0.937500 0.437500
vt 0.937500 0.562500
vt 0.000000 0.187500
vt 1.000000 0.312500
vt 0.000000 0.312500
vt 1.000000 0.437500
vt 0.937500 0.687500
vt 0.937500 0.812500
vt 0.000000 0.062500
vt 1.000000 0.187500
vt 0.937500 0.937500
vt 0.015625 1.000000
vt 0.000000 0.937500
vt 0.109375 0.000000
vt 0.875000 0.437500
vt 0.875000 0.562500
vt 0.937500 0.187500
vt 0.937500 0.312500
vt 0.875000 0.812500
vt 0.875000 0.937500
vt 0.937500 0.062500
vt 0.875000 0.687500
vt 0.953125 1.000000
vt 0.046875 0.000000
vt 0.812500 0.437500
vt 0.812500 0.562500
vt 0.875000 0.187500
vt 0.875000 0.312500
vt 0.890625 1.000000
vt 0.875000 0.062500
vt 0.984375 0.000000
vt 1.000000 0.062500
vt 0.812500 0.187500
vt 0.812500 0.312500
vt 0.796875 0.000000
vt 0.812500 0.062500
vt 0.750000 0.062500
vt 0.828125 1.000000
vt 0.921875 0.000000
vt 0.765625 1.000000
vt 0.859375 0.000000
vt 0.734375 0.000000
vt 0.703125 1.000000
vn 0.1951 0.0000 -0.9808
vn -0.1393 0.7002 -0.7002
vn 0.0759 0.9212 -0.3816
vn 0.5556 0.0000 -0.8315
vn 0.1393 0.7002 -0.7002
vn -0.0759 0.9212 -0.3816
vn 0.1807 0.3764 -0.9087
vn 0.3966 -0.7002 -0.5936
vn 0.0555 0.9950 -0.0831
vn 0.2161 -0.9212 -0.3235
vn 0.3235 0.9212 -0.2161
vn 0.1393 -0.7002 -0.7002
vn 0.1807 -0.3764 -0.9087
vn 0.8315 0.0000 -0.5556
vn 0.3966 0.7002 -0.5936
vn 0.5936 -0.7002 -0.3966
vn 0.7703 -0.3764 -0.5147
vn 0.5936 0.7002 -0.3966
vn 0.9808 0.0000 -0.1951
vn 0.3235 -0.9212 -0.2161
vn 0.0831 0.9950 -0.0555
vn 0.9087 0.3764 -0.1807
vn 0.0555 -0.9950 -0.0831
vn 0.3816 0.9212 -0.0759
vn 0.7002 -0.7002 -0.1393
vn 0.9087 -0.3764 -0.1807
vn 0.7002 0.7002 -0.1393
vn 0.9808 0.0000 0.1951
vn 0.3816 -0.9212 -0.0759
vn 0.9087 0.3764 0.1807
vn 0.0980 0.9950 -0.0195
vn 0.0831 -0.9950 -0.0555
vn 0.3816 0.9212 0.0759
vn 0.7002 -0.7002 0.1393
vn 0.9087 -0.3764 0.1807
vn 0.7002 0.7002 0.1393
vn 0.8315 0.0000 0.5556
vn 0.7703 0.3764 0.5147
vn 0.0980 -0.9950 -0.0195
vn 0.0980 0.9950 0.0195
vn 0.3235 0.9212 0.2161
vn 0.3816 -0.9212 0.0759
vn 0.7703 -0.3764 0.5147
vn 0.5936 0.7002 0.3966
vn 0.5556 0.0000 0.8315
vn 0.5936 -0.7002 0.3966
vn 0.0831 0.9950 0.0555
vn 0.0980 -0.9950 0.0195
vn 0.2161 0.9212 0.3235
vn 0.3235 -0.9212 0.2161
vn 0.5147 0.3764 0.7703
vn 0.3966 0.7002 0.5936
vn 0.1951 0.0000 0.9808
vn 0.3966 -0.7002 0.5936
vn 0.0555 0.9950 0.0831
vn 0.0831 -0.9950 0.0555
vn 0.0759 0.9212 0.3816
vn 0.5147 -0.3764 0.7703
vn 0.1807 0.3764 0.9087
vn 0.2161 -0.9212 0.3235
vn 0.1393 0.7002 0.7002
vn -0.1951 0.0000 0.9808
vn 0.1393 -0.7002 0.7002
vn 0.0195 0.9950 0.0980
vn -0.0759 0.9212 0.3816
vn 0.1807 -0.3764 0.9087
vn 0.0555 -0.9950 0.0831
vn 0.0759 -0.9212 0.3816
vn -0.1807 0.3764 0.9087
vn -0.1807 -0.3764 0.9087
vn -0.1393 0.7002 0.7002
vn -0.5556 0.0000 0.8315
vn -0.1393 -0.7002 0.7002
vn -0.2161 0.9212 0.3235
vn 0.0195 -0.9950 0.0980
vn -0.0759 -0.9212 0.3816
vn -0.5147 0.3764 0.7703
vn -0.0195 0.9950 0.0980
vn -0.5147 -0.3764 0.7703
vn -0.3966 0.7002 0.5936
vn -0.8315 0.0000 0.5556
vn -0.0195 -0.9950 0.0980
vn -0.3235 0.9212 0.2161
vn -0.2161 -0.9212 0.3235
vn -0.7703 0.3764 0.5147
vn -0.3966 -0.7002 0.5936
vn -0.0555 0.9950 0.0831
vn -0.5936 0.7002 0.3966
vn -0.9808 0.0000 0.1951
vn -0.7703 -0.3764 0.5147
vn -0.0555 -0.9950 0.0831
vn -0.7002 0.7002 0.1393
vn -0.3235 -0.9212 0.2161
vn -0.9087 0.3764 0.1807
vn -0.5936 -0.7002 0.3966
vn -0.3816 0.9212 0.0759
vn -0.0831 0.9950 0.0555
vn -0.9808 0.0000 -0.1951
vn -0.7002 -0.7002 0.1393
vn -0.9087 -0.3764 0.1807
vn -0.7002 0.7002 -0.1393
vn -0.3816 -0.9212 0.0759
vn -0.9087 0.3764 -0.1807
vn -0.3816 0.9212 -0.0759
vn -0.0980 0.9950 0.0195
vn -0.0831 -0.9950 0.0555
vn -0.8315 0.0000 -0.5556
vn -0.7002 -0.7002 -0.1393
vn -0.9087 -0.3764 -0.1807
vn -0.3235 0.9212 -0.2161
vn -0.3816 -0.9212 -0.0759
vn -0.7703 0.3764 -0.5147
vn -0.0980 0.9950 -0.0195
vn -0.0980 -0.9950 0.0195
vn -0.5556 0.0000 -0.8315
vn -0.5936 -0.7002 -0.3966
vn -0.7703 -0.3764 -0.5147
vn -0.5936 0.7002 -0.3966
vn -0.2161 0.9212 -0.3235
vn -0.5147 0.3764 -0.7703
vn -0.0831 0.9950 -0.0555
vn -0.3235 -0.9212 -0.2161
vn -0.0980 -0.9950 -0.0195
vn -0.3966 -0.7002 -0.5936
vn -0.5147 -0.3764 -0.7703
vn -0.3966 0.7002 -0.5936
vn -0.0195 -0.9950 -0.0980
vn -0.2161 -0.9212 -0.3235
vn -0.0555 0.9950 -0.0831
vn -0.0831 -0.9950 -0.0555
vn -0.1393 -0.7002 -0.7002
vn -0.1807 -0.3764 -0.9087
vn -0.0759 -0.9212 -0.3816
vn -0.0195 0.9950 -0.0980
vn -0.0555 -0.9950 -0.0831
vn -0.1951 0.0000 -0.9808
vn 0.7703 0.3764 -0.5147
vn 0.0195 -0.9950 -0.0980
vn 0.0759 -0.9212 -0.3816
vn -0.1807 0.3764 -0.9087
vn 0.5147 0.3764 -0.7703
vn 0.2161 0.9212 -0.3235
vn 0.0195 0.9950 -0.0980
vn 0.5147 -0.3764 -0.7703
s off
f 11/1/1 5/2/1 4/3/1 10/4/1
f 122/5/2 2/6/2 3/7/2 123/8/2
f 8/9/3 2/6/3 1/10/3 7/11/3
f 19/12/4 11/1/4 10/4/4 18/13/4
f 9/14/5 3/7/5 2/6/5 8/9/5
f 122/5/6 121/15/6 1/10/6 2/6/6
f 10/4/7 4/3/7 3/7/7 9/14/7
f 21/16/8 13/17/8 12/18/8 20/19/8
f 80/20/9 15/21/9 7/11/9
f 22/22/10 14/23/10 13/17/10 21/16/10
f 24/24/11 16/25/11 15/21/11 23/26/11
f 13/17/12 6/27/12 129/28/12 12/18/12
f 12/18/13 129/28/13 5/2/13 11/1/13
f 27/29/14 19/12/14 18/13/14 26/30/14
f 17/31/15 9/14/15 8/9/15 16/25/15
f 29/32/16 21/16/16 20/19/16 28/33/16
f 28/33/17 20/19/17 19/12/17 27/29/17
f 25/34/18 17/31/18 16/25/18 24/24/18
f 35/35/19 27/29/19 26/30/19 34/36/19
f 30/37/20 22/22/20 21/16/20 29/32/20
f 80/38/21 23/26/21 15/21/21
f 34/36/22 26/30/22 25/34/22 33/39/22
f 55/40/23 14/23/23 22/22/23
f 32/41/24 24/24/24 23/26/24 31/42/24
f 37/43/25 29/32/25 28/33/25 36/44/25
f 36/44/26 28/33/26 27/29/26 35/35/26
f 33/39/27 25/34/27 24/24/27 32/41/27
f 43/45/28 35/35/28 34/36/28 42/46/28
f 38/47/29 30/37/29 29/32/29 37/43/29
f 42/46/30 34/36/30 33/39/30 41/48/30
f 80/49/31 31/42/31 23/26/31
f 55/50/32 22/22/32 30/37/32
f 40/51/33 32/41/33 31/42/33 39/52/33
f 45/53/34 37/43/34 36/44/34 44/54/34
f 44/54/35 36/44/35 35/35/35 43/45/35
f 41/48/36 33/39/36 32/41/36 40/51/36
f 51/55/37 43/45/37 42/46/37 50/56/37
f 50/56/38 42/46/38 41/48/38 49/57/38
f 55/58/39 30/37/39 38/47/39
f 80/59/40 39/52/40 31/42/40
f 48/60/41 40/51/41 39/52/41 47/61/41
f 46/62/42 38/47/42 37/43/42 45/53/42
f 52/63/43 44/54/43 43/45/43 51/55/43
f 49/57/44 41/48/44 40/51/44 48/60/44
f 60/64/45 51/55/45 50/56/45 59/65/45
f 53/66/46 45/53/46 44/54/46 52/63/46
f 80/67/47 47/61/47 39/52/47
f 55/68/48 38/47/48 46/62/48
f 57/69/49 48/60/49 47/61/49 56/70/49
f 54/71/50 46/62/50 45/53/50 53/66/50
f 59/65/51 50/56/51 49/57/51 58/72/51
f 58/72/52 49/57/52 48/60/52 57/69/52
f 68/73/53 60/64/53 59/65/53 67/74/53
f 62/75/54 53/66/54 52/63/54 61/76/54
f 80/77/55 56/70/55 47/61/55
f 55/78/56 46/62/56 54/71/56
f 65/79/57 57/69/57 56/70/57 64/80/57
f 61/76/58 52/63/58 51/55/58 60/64/58
f 67/74/59 59/65/59 58/72/59 66/81/59
f 63/82/60 54/71/60 53/66/60 62/75/60
f 66/81/61 58/72/61 57/69/61 65/79/61
f 76/83/62 68/73/62 67/74/62 75/84/62
f 70/85/63 62/75/63 61/76/63 69/86/63
f 80/87/64 64/80/64 56/70/64
f 73/88/65 65/79/65 64/80/65 72/89/65
f 69/86/66 61/76/66 60/64/66 68/73/66
f 55/90/67 54/71/67 63/82/67
f 71/91/68 63/82/68 62/75/68 70/85/68
f 75/84/69 67/74/69 66/81/69 74/92/69
f 77/93/70 69/86/70 68/73/70 76/83/70
f 74/92/71 66/81/71 65/79/71 73/88/71
f 85/94/72 76/83/72 75/84/72 84/95/72
f 78/96/73 70/85/73 69/86/73 77/93/73
f 82/97/74 73/88/74 72/89/74 81/98/74
f 55/99/75 63/82/75 71/91/75
f 79/100/76 71/91/76 70/85/76 78/96/76
f 84/95/77 75/84/77 74/92/77 83/101/77
f 80/102/78 72/89/78 64/80/78
f 86/103/79 77/93/79 76/83/79 85/94/79
f 83/101/80 74/92/80 73/88/80 82/97/80
f 93/104/81 85/94/81 84/95/81 92/105/81
f 55/106/82 71/91/82 79/100/82
f 90/107/83 82/97/83 81/98/83 89/108/83
f 88/109/84 79/100/84 78/96/84 87/110/84
f 92/105/85 84/95/85 83/101/85 91/111/85
f 87/110/86 78/96/86 77/93/86 86/103/86
f 80/112/87 81/98/87 72/89/87
f 91/111/88 83/101/88 82/97/88 90/107/88
f 101/113/89 93/104/89 92/105/89 100/114/89
f 94/115/90 86/103/90 85/94/90 93/104/90
f 55/116/91 79/100/91 88/109/91
f 99/117/92 91/111/92 90/107/92 98/118/92
f 96/119/93 88/109/93 87/110/93 95/120/93
f 100/121/94 92/105/94 91/111/94 99/122/94
f 95/120/95 87/110/95 86/103/95 94/115/95
f 98/123/96 90/107/96 89/108/96 97/124/96
f 80/125/97 89/108/97 81/98/97
f 109/126/98 101/113/98 100/114/98 108/127/98
f 103/128/99 95/120/99 94/115/99 102/129/99
f 102/130/100 94/115/100 93/104/100 101/131/100
f 107/132/101 99/117/101 98/118/101 106/133/101
f 104/134/102 96/119/102 95/120/102 103/135/102
f 108/127/103 100/121/103 99/122/103 107/132/103
f 106/133/104 98/123/104 97/124/104 105/136/104
f 80/137/105 97/138/105 89/108/105
f 55/139/106 88/109/106 96/119/106
f 117/140/107 109/126/107 108/127/107 116/141/107
f 111/142/108 103/128/108 102/129/108 110/143/108
f 110/143/109 102/130/109 101/131/109 109/126/109
f 114/144/110 106/133/110 105/136/110 113/145/110
f 112/146/111 104/134/111 103/135/111 111/142/111
f 116/141/112 108/127/112 107/132/112 115/147/112
f 80/148/113 105/136/113 97/124/113
f 55/149/114 96/119/114 104/134/114
f 125/150/115 117/140/115 116/141/115 124/151/115
f 119/152/116 111/142/116 110/143/116 118/153/116
f 118/153/117 110/143/117 109/126/117 117/140/117
f 115/147/118 107/132/118 106/133/118 114/144/118
f 122/5/119 114/144/119 113/145/119 121/15/119
f 124/151/120 116/141/120 115/147/120 123/8/120
f 80/154/121 113/145/121 105/136/121
f 120/155/122 112/146/122 111/142/122 119/152/122
f 55/156/123 104/157/123 112/146/123
f 127/158/124 119/152/124 118/153/124 126/159/124
f 126/159/125 118/153/125 117/140/125 125/150/125
f 123/8/126 115/147/126 114/144/126 122/5/126
f 55/160/127 128/161/127 130/162/127
f 128/161/128 120/155/128 119/152/128 127/158/128
f 80/163/129 121/15/129 113/145/129
f 55/164/130 112/146/130 120/155/130
f 6/27/131 127/158/131 126/159/131 129/28/131
f 129/28/132 126/159/132 125/150/132 5/2/132
f 130/162/133 128/161/133 127/158/133 6/27/133
f 80/165/134 1/10/134 121/15/134
f 55/166/135 120/155/135 128/161/135
f 124/151/136 4/3/136 5/2/136 125/150/136
f 26/30/137 18/13/137 17/31/137 25/34/137
f 55/167/138 130/162/138 14/23/138
f 14/23/139 130/162/139 6/27/139 13/17/139
f 123/8/140 3/7/140 4/3/140 124/151/140
f 18/13/141 10/4/141 9/14/141 17/31/141
f 16/25/142 8/9/142 7/11/142 15/21/142
f 80/168/143 7/11/143 1/10/143
f 20/19/144 12/18/144 11/1/144 19/12/144
